<svg id="Layer_1" data-name="Layer 1" xmlns="http://www.w3.org/2000/svg" viewBox="0 0 274.34 137.67"><defs><style>.cls-1,.cls-2{fill:none;stroke-linecap:round;stroke-miterlimit:10;}.cls-1{stroke:#231f20;stroke-width:9px;}.cls-2{stroke:#fff200;stroke-width:6px;}</style></defs><title>EAC_Logo_black_yellowbkoutline2_white</title><path d="M208.69,287.86l12,1.18a23.28,23.28,0,0,1-10.9,13.13q-7.89,4.43-19.54,4.43-14.66,0-23.74-7.19t-9.07-20.76q0-14.08,9.15-21.47t23.18-7.4q13.39,0,22.35,7.27t9,21l-.08,2.46H169.54q.71,9.16,6.58,13.82A22.22,22.22,0,0,0,190.39,299Q203.54,299,208.69,287.86ZM170.26,273h38.52q-.79-7.06-4.68-10.55-5.63-5.07-14.34-5.07a21.47,21.47,0,0,0-13.39,4.22A15.14,15.14,0,0,0,170.26,273Z" transform="translate(-157.5 -207.63)"/><path d="M313.5,298.66a59,59,0,0,1-14.17,5.94,58.13,58.13,0,0,1-15.27,2q-12.51,0-20-4.2t-7.45-11.31a11.69,11.69,0,0,1,3.5-8.34,23.36,23.36,0,0,1,9.57-5.68q6.07-2,18.4-3,16.56-1.35,24.29-3.23l.09-2.35q0-5.58-3.59-7.83-5.06-3.28-15.55-3.28-9.48,0-14.17,2.19t-6.9,8.2l-13.34-1.23a20.58,20.58,0,0,1,11.55-12.75q8.69-4,24.88-4,12.6,0,19.78,2.64t9.06,6.53q1.88,3.89,1.89,11.36v12.29q0,12.9.87,16.25a17.3,17.3,0,0,0,3.45,6.53H316.26A15,15,0,0,1,313.5,298.66Zm-1.1-20.58q-7.45,2-22.17,3.48a68.75,68.75,0,0,0-12,1.87,12.36,12.36,0,0,0-5.29,3,6.13,6.13,0,0,0-1.89,4.43q0,3.89,4.32,6.22t12,2.33a39.37,39.37,0,0,0,13.2-2.1,20,20,0,0,0,8.88-5.61q2.94-3.51,2.94-10.21Z" transform="translate(-157.5 -207.63)"/><path d="M419.06,285.45l12.77,1.18a22.19,22.19,0,0,1-11.05,14.85q-8.85,5.12-21.27,5.12-15.06,0-24.79-7.19T365,278.13q0-14.18,9.82-21.27T400,249.77q11.89,0,20,4.3A19.87,19.87,0,0,1,430.51,267l-12.59,1.33a14.6,14.6,0,0,0-6.43-8.23,21.15,21.15,0,0,0-11-2.73q-9.6,0-15.9,4.94T378.29,278q0,11.11,6,16.07t15.46,5a23.23,23.23,0,0,0,12.64-3.3Q417.65,292.41,419.06,285.45Z" transform="translate(-157.5 -207.63)"/><path class="cls-1" d="M176.23,212.13c31.58,0,73.86,32.75,73.86,64.33s-42.28,64.33-73.86,64.33" transform="translate(-157.5 -207.63)"/><path class="cls-1" d="M350.46,276.46c0,31.58-25.6,54.18-57.18,54.18s-57.18-22.6-57.18-54.18,25.6-54.18,57.18-54.18S350.46,244.88,350.46,276.46Z" transform="translate(-157.5 -207.63)"/><path class="cls-1" d="M410.32,340.8c-31.58,0-73.86-32.75-73.86-64.33s42.28-64.33,73.86-64.33" transform="translate(-157.5 -207.63)"/><path class="cls-2" d="M176.23,212.13c31.58,0,73.86,32.75,73.86,64.33s-42.28,64.33-73.86,64.33" transform="translate(-157.5 -207.63)"/><path class="cls-2" d="M350.46,276.46c0,31.58-25.6,54.18-57.18,54.18s-57.18-22.6-57.18-54.18,25.6-54.18,57.18-54.18S350.46,244.88,350.46,276.46Z" transform="translate(-157.5 -207.63)"/><path class="cls-2" d="M410.32,340.8c-31.58,0-73.86-32.75-73.86-64.33s42.28-64.33,73.86-64.33" transform="translate(-157.5 -207.63)"/></svg>